#!OML:ASF X:\für Bonn\!DataBase\2005_08_12_Daniel\c3d\Daniel.ASF
:FULLY-SPECIFIED
:DEGREES
127
root 4.27863 16.8452 -2.74653 -185.695 -88.7433 172.663
lowerback 17.5937 -5.32158 7.47773
upperback 6.7715 -6.26898 -2.17918
thorax -3.51819 -3.2093 -5.21493
lowerneck 11.8453 13.7915 -7.2675
upperneck 18.9461 17.1029 -6.25721
head 4.48759 7.15336 -0.989059
rclavicle -2.60423e-014 -2.84511e-015
rhumerus -47.1387 -2.05897 -80.9599
rradius 38.7011
rwrist 20.3292
rhand -16.4634 24.2977
rfingers 7.12502
rthumb 9.75313 -5.45646
lclavicle -2.60423e-014 -2.84511e-015
lhumerus -24.2226 -9.71332 78.5507
lradius 131.607
lwrist 14.3092
lhand -18.7949 -26.237
lfingers 7.12502
lthumb 7.50314 3.60992
rfemur -8.59913 -0.936897 23.7891
rtibia 44.3264
rfoot -30.5901 -14.6585
rtoes -3.15083
lfemur -6.90553 -0.678755 -12.3393
ltibia 62.4759
lfoot -22.0756 12.3342
ltoes -19.3072
128
root 4.27533 16.8552 -2.72708 -194.059 -88.853 181.304
lowerback 17.2134 -5.34431 7.71017
upperback 6.62813 -6.26584 -2.04429
thorax -3.47986 -3.20301 -5.22328
lowerneck 11.8853 13.8237 -7.14126
upperneck 18.7615 17.1736 -6.44331
head 4.44429 7.2077 -1.07423
rclavicle 1.62382e-014 -2.29099e-014
rhumerus -47.0031 -1.44175 -81.6732
rradius 40.3353
rwrist 19.5507
rhand -16.864 24.3202
rfingers 7.12502
rthumb 9.36655 -5.45168
lclavicle 1.62382e-014 -2.29099e-014
lhumerus -24.8331 -9.33487 79.3606
lradius 131.68
lwrist 14.123
lhand -18.7893 -26.4321
lfingers 7.12502
lthumb 7.50856 3.41468
rfemur -8.77521 -0.796497 23.9556
rtibia 44.1697
rfoot -30.6822 -14.8157
rtoes -3.1934
lfemur -6.1642 -0.394973 -11.9977
ltibia 61.1176
lfoot -23.3064 11.9126
ltoes -20.1775
129
root 4.27178 16.8644 -2.70683 -203.117 -88.942 190.642
lowerback 16.8114 -5.3679 7.90891
upperback 6.50101 -6.2746 -1.90243
thorax -3.41 -3.20211 -5.20527
lowerneck 11.8912 13.8486 -7.01017
upperneck 18.5406 17.2455 -6.68548
head 4.40041 7.26352 -1.17675
rclavicle 8.22472e-015 7.7526e-015
rhumerus -46.8409 -0.856529 -82.3334
rradius 41.9797
rwrist 18.8514
rhand -17.1539 24.4677
rfingers 7.12502
rthumb 9.08681 -5.31656
lclavicle 8.22472e-015 7.7526e-015
lhumerus -25.4291 -8.88492 80.166
lradius 131.768
lwrist 14.0123
lhand -18.7458 -26.5085
lfingers 7.12502
lthumb 7.55053 3.33675
rfemur -8.96597 -0.670012 24.0915
rtibia 44.0314
rfoot -30.758 -14.9399
rtoes -3.27638
lfemur -5.4714 -0.112953 -11.6893
ltibia 59.8122
lfoot -24.4582 11.4726
ltoes -20.913
130
root 4.26913 16.8727 -2.6861 -214.632 -89.0261 202.448
lowerback 16.3983 -5.40164 8.14331
upperback 6.36577 -6.29434 -1.78403
thorax -3.3498 -3.20669 -5.23053
lowerneck 11.9256 13.8743 -6.8383
upperneck 18.3281 17.316 -6.90519
head 4.35635 7.32212 -1.2794
rclavicle 2.52332e-014 -1.76918e-014
rhumerus -46.69 -0.315451 -83.0168
rradius 43.6294
rwrist 18.09
rhand -17.3225 24.6668
rfingers 7.12502
rthumb 8.92412 -5.12444
lclavicle 2.52332e-014 -1.76918e-014
lhumerus -26.0512 -8.46006 80.9311
lradius 131.857
lwrist 13.8812
lhand -18.733 -26.5449
lfingers 7.12502
lthumb 7.56287 3.29991
rfemur -9.18176 -0.561496 24.2282
rtibia 43.9193
rfoot -30.8779 -15.0622
rtoes -3.25832
lfemur -4.84895 0.166943 -11.3762
ltibia 58.5513
lfoot -25.4981 11.0064
ltoes -21.5464
131
root 4.26692 16.8789 -2.66331 -226.661 -89.0551 214.76
lowerback 16.0041 -5.42614 8.38159
upperback 6.23012 -6.30235 -1.66062
thorax -3.29727 -3.2061 -5.25406
lowerneck 11.8994 13.9016 -6.72723
upperneck 18.1319 17.3885 -7.0832
head 4.31858 7.37738 -1.35537
rclavicle 6.72513e-014 -3.90612e-014
rhumerus -46.5335 0.201013 -83.6617
rradius 45.2786
rwrist 17.3564
rhand -17.5023 24.8845
rfingers 7.12502
rthumb 8.75061 -4.91409
lclavicle 6.72513e-014 -3.90612e-014
lhumerus -26.6704 -8.01328 81.7312
lradius 131.93
lwrist 13.7442
lhand -18.7324 -26.5634
lfingers 7.12502
lthumb 7.56345 3.28133
rfemur -9.40768 -0.474024 24.3378
rtibia 43.8256
rfoot -30.9716 -15.1568
rtoes -3.27597
lfemur -4.23781 0.39249 -11.1183
ltibia 57.333
lfoot -26.5033 10.5773
ltoes -21.9772
132
root 4.26506 16.8848 -2.63856 -238.697 -89.0356 227.086
lowerback 15.6004 -5.45135 8.64317
upperback 6.09321 -6.31127 -1.54059
thorax -3.243 -3.20598 -5.29491
lowerneck 11.8406 13.9185 -6.61478
upperneck 17.9574 17.454 -7.27109
head 4.29616 7.42634 -1.43197
rclavicle -5.9859e-014 -1.98785e-016
rhumerus -46.3806 0.706162 -84.2801
rradius 46.9363
rwrist 16.621
rhand -17.6529 25.1922
rfingers 7.12502
rthumb 8.60527 -4.61243
lclavicle -5.9859e-014 -1.98785e-016
lhumerus -27.2746 -7.52592 82.5354
lradius 131.952
lwrist 13.6085
lhand -18.7197 -26.6562
lfingers 7.12502
lthumb 7.57567 3.1881
rfemur -9.63834 -0.406933 24.4356
rtibia 43.7315
rfoot -31.0328 -15.2262
rtoes -3.17429
lfemur -3.6729 0.602329 -10.8834
ltibia 56.1565
lfoot -27.4466 10.1515
ltoes -22.2412
133
root 4.26422 16.8919 -2.61359 -251.821 -89.0014 240.483
lowerback 15.2221 -5.48618 8.89202
upperback 5.95733 -6.33513 -1.41902
thorax -3.2015 -3.21414 -5.32199
lowerneck 11.7606 13.9406 -6.55833
upperneck 17.7869 17.5184 -7.40468
head 4.26721 7.47266 -1.48139
rclavicle 1.02623e-014 -2.38542e-015
rhumerus -46.2361 1.17748 -84.8842
rradius 48.5946
rwrist 15.9022
rhand -17.8066 25.4975
rfingers 7.12502
rthumb 8.45699 -4.31321
lclavicle 1.02623e-014 -2.38542e-015
lhumerus -27.8416 -6.98919 83.3399
lradius 131.962
lwrist 13.4718
lhand -18.662 -26.7249
lfingers 7.12502
lthumb 7.63138 3.11743
rfemur -9.84133 -0.338943 24.5224
rtibia 43.632
rfoot -31.1564 -15.312
rtoes -3.16355
lfemur -3.14943 0.796078 -10.6558
ltibia 55.019
lfoot -28.3273 9.67902
ltoes -22.4122
134
root 4.26256 16.901 -2.58885 -264.356 -88.9358 253.292
lowerback 14.8414 -5.52687 9.1273
upperback 5.81982 -6.37132 -1.30511
thorax -3.16167 -3.2288 -5.34741
lowerneck 11.6453 13.9643 -6.46055
upperneck 17.6606 17.5974 -7.54325
head 4.26621 7.52435 -1.53471
rclavicle -1.37161e-014 -2.44505e-014
rhumerus -46.0921 1.65348 -85.4932
rradius 50.2327
rwrist 15.152
rhand -17.9746 25.8175
rfingers 7.12502
rthumb 8.29483 -3.99962
lclavicle -1.37161e-014 -2.44505e-014
lhumerus -28.4021 -6.3784 84.1245
lradius 131.968
lwrist 13.2631
lhand -18.5118 -26.8066
lfingers 7.12502
lthumb 7.77638 3.03037
rfemur -10.0324 -0.324516 24.5855
rtibia 43.5122
rfoot -31.2426 -15.3995
rtoes -3.22843
lfemur -2.69163 0.971885 -10.4526
ltibia 53.921
lfoot -29.1046 9.23592
ltoes -22.4649
135
root 4.26102 16.9089 -2.56472 -276.471 -88.8305 265.67
lowerback 14.457 -5.56891 9.35875
upperback 5.6911 -6.41367 -1.20029
thorax -3.11174 -3.24626 -5.38018
lowerneck 11.5084 13.9756 -6.37331
upperneck 17.5213 17.6603 -7.66211
head 4.25995 7.56921 -1.57874
rclavicle 1.75676e-014 -1.2921e-014
rhumerus -45.9404 2.06305 -86.0995
rradius 51.8477
rwrist 14.4132
rhand -18.0777 26.1059
rfingers 7.12502
rthumb 8.19538 -3.71517
lclavicle 1.75676e-014 -1.2921e-014
lhumerus -28.9209 -5.7521 84.8619
lradius 131.965
lwrist 12.9588
lhand -18.3985 -26.8387
lfingers 7.12502
lthumb 7.88575 2.99423
rfemur -10.2078 -0.316013 24.6437
rtibia 43.3829
rfoot -31.3344 -15.5112
rtoes -3.19223
lfemur -2.29473 1.12547 -10.2648
ltibia 52.878
lfoot -29.7946 8.78783
ltoes -22.4526
136
root 4.25863 16.9181 -2.54153 -286.993 -88.6842 276.437
lowerback 14.0916 -5.61448 9.57367
upperback 5.56284 -6.46336 -1.09536
thorax -3.07074 -3.26812 -5.40097
lowerneck 11.3822 13.9981 -6.26746
upperneck 17.3988 17.7391 -7.79089
head 4.26225 7.62121 -1.62895
rclavicle -3.38928e-014 1.17283e-014
rhumerus -45.7939 2.42028 -86.6765
rradius 53.4084
rwrist 13.7459
rhand -18.2029 26.4197
rfingers 7.12502
rthumb 8.07455 -3.40609
lclavicle -3.38928e-014 1.17283e-014
lhumerus -29.4363 -5.09944 85.5788
lradius 131.965
lwrist 12.6786
lhand -18.3408 -26.9428
lfingers 7.12502
lthumb 7.94138 2.88801
rfemur -10.3486 -0.296906 24.6963
rtibia 43.2458
rfoot -31.4647 -15.615
rtoes -3.17916
lfemur -1.93776 1.21362 -10.1126
ltibia 51.886
lfoot -30.3979 8.42782
ltoes -22.4499
137
root 4.2569 16.9256 -2.51854 -296.42 -88.504 286.075
lowerback 13.7764 -5.66821 9.75033
upperback 5.42768 -6.52467 -0.976772
thorax -3.06048 -3.29773 -5.37943
lowerneck 11.28 14.0231 -6.18635
upperneck 17.2523 17.8143 -7.93861
head 4.25177 7.67108 -1.68411
rclavicle 3.49364e-014 1.82882e-014
rhumerus -45.682 2.78029 -87.2142
rradius 54.9526
rwrist 12.9875
rhand -18.2291 26.7888
rfingers 7.12502
rthumb 8.04924 -3.03787
lclavicle 3.49364e-014 1.82882e-014
lhumerus -29.962 -4.43982 86.2878
lradius 131.97
lwrist 12.3929
lhand -18.3207 -27.0403
lfingers 7.12502
lthumb 7.96081 2.78974
rfemur -10.4533 -0.310874 24.7346
rtibia 43.1139
rfoot -31.5767 -15.7442
rtoes -3.1847
lfemur -1.61412 1.27118 -9.99395
ltibia 50.9646
lfoot -30.9232 8.1377
ltoes -22.5405
